# xmcd
#
# Track frame offsets:
# 150
# 10683
# 17909
# 30705
# 42316
# 54879
# 68582
# 78571
# 92088
# 97153
# 108811
# 124852
# 139235
# 150558
# 167392
# 174785
# 194589
# 203295
# 213427
# 229889
# 244166
# 261365
# 277257
# 291885
# 311041
# 332307
#
# Disc length: 4605 seconds
#
# Revision: 0
# Processed by: cddbd v1.5PL3 Copyright (c) Steve Scherf et al.
# Submitted via: Axialis_AX_CDPlayer 2.6
#
DISCID=6611fb1a
DTITLE=Johnny Cash - Live at Madison Square Garden 2002
DYEAR=1900
DGENRE=
TTITLE0=Big river
TTITLE1=I still miss someone
TTITLE2=Five feet high and rising
TTITLE3=Picking time
TTITLE4=Remeber the Alamo
TTITLE5=Last night I had the strangest dream
TTITLE6=Wreck of old 97
TTITLE7=Long black veil
TTITLE8=The wall
TTITLE9=Send a picture of mother
TTITLE10=Foslom Prison blues
TTITLE11=Blue sueded shoes
TTITLE12=Flowers on the wall
TTITLE13=Wildwood flower
TTITLE14=Worried man blues
TTITLE15=A boy named sue
TTITLE16=Cocaine blues
TTITLE17=Old account was settled long ago
TTITLE18=Jesus was a carpenter
TTITLE19=Ballad of Ira Hayes
TTITLE20=As long as the grass shall grow
TTITLE21=Singing a traavelling song
TTITLE22=He turned the water into wine
TTITLE23=Were you there
TTITLE24=Finale medley
TTITLE25=Suppertime
EXTD=
EXTT0=
EXTT1=
EXTT2=
EXTT3=
EXTT4=
EXTT5=
EXTT6=
EXTT7=
EXTT8=
EXTT9=
EXTT10=
EXTT11=
EXTT12=
EXTT13=
EXTT14=
EXTT15=
EXTT16=
EXTT17=
EXTT18=
EXTT19=
EXTT20=
EXTT21=
EXTT22=
EXTT23=
EXTT24=
EXTT25=
PLAYORDER=
